<?xml version="1.0" encoding="UTF-8" standalone="no"?>
<!-- Created with Inkscape (http://www.inkscape.org/) -->

<svg
   xmlns:dc="http://purl.org/dc/elements/1.1/"
   xmlns:cc="http://creativecommons.org/ns#"
   xmlns:rdf="http://www.w3.org/1999/02/22-rdf-syntax-ns#"
   xmlns:svg="http://www.w3.org/2000/svg"
   xmlns="http://www.w3.org/2000/svg"
   xmlns:sodipodi="http://sodipodi.sourceforge.net/DTD/sodipodi-0.dtd"
   xmlns:inkscape="http://www.inkscape.org/namespaces/inkscape"
   id="svg3474"
   version="1.1"
   inkscape:version="0.48.2 r9819"
   width="256"
   height="256"
   sodipodi:docname="mapbox-logo-256.png"
   inkscape:export-filename="/Users/saman/work_repos/mapbox.github.com/img/press-assets/tilemill-logo-256.png"
   inkscape:export-xdpi="90"
   inkscape:export-ydpi="90">
  <metadata
     id="metadata3480">
    <rdf:RDF>
      <cc:Work
         rdf:about="">
        <dc:format>image/svg+xml</dc:format>
        <dc:type
           rdf:resource="http://purl.org/dc/dcmitype/StillImage" />
        <dc:title></dc:title>
      </cc:Work>
    </rdf:RDF>
  </metadata>
  <defs
     id="defs3478" />
  <sodipodi:namedview
     pagecolor="#ffffff"
     bordercolor="#666666"
     borderopacity="1"
     objecttolerance="10"
     gridtolerance="10"
     guidetolerance="10"
     inkscape:pageopacity="0"
     inkscape:pageshadow="2"
     inkscape:window-width="1275"
     inkscape:window-height="846"
     id="namedview3476"
     showgrid="false"
     inkscape:zoom="1"
     inkscape:cx="120.59982"
     inkscape:cy="162.02222"
     inkscape:window-x="0"
     inkscape:window-y="0"
     inkscape:window-maximized="0"
     inkscape:current-layer="svg3474" />
  <g
     id="g5159"
     style="fill:#3c4e5a;fill-opacity:1"
     transform="matrix(0.35888101,0,0,0.35888101,-259.86469,224.35027)">
    <path
       sodipodi:nodetypes="sssssssccscsssccs"
       inkscape:connector-curvature="0"
       id="path4461-5"
       d="m 1024,-153.63782 c -26.7335,0 -42,21.26647 -42,47.5 0,26.23353 18.7665,47.5 45,47.5 11.5781,0 21.6808,-2.95648 30.375,-9.8125 1.5882,-1.2524 2.1975,-3.54216 0.6875,-5.6875 l -5.7187,-8.125 c -1.0175,-1.44569 -3.7254,-1.50761 -5.125,-0.34375 -5.6761,4.72014 -11.5426,6.96236 -20.2188,6.96875 -12.8426,0.009 -22,-11 -24.75,-22 l 58.9062,0 c 3,0 4.1629,-1 4.625,-4 0.145,-1.47826 0.2188,-2.98087 0.2188,-4.5 0,-26.23353 -15.2665,-47.5 -42,-47.5 z m 0,19 c 12.9126,0 18.9857,7.92579 21.8438,19 l -43.6876,0 c 2.8583,-11.07421 8.9312,-19 21.8438,-19 z"
       clip-path="none"
       style="color:#000000;fill:#3c4e5a;fill-opacity:1;fill-rule:nonzero;stroke:none;stroke-width:50;marker:none;visibility:visible;display:inline;overflow:visible;enable-background:accumulate" />
    <path
       inkscape:connector-curvature="0"
       style="color:#000000;fill:#3c4e5a;fill-opacity:1;fill-rule:nonzero;stroke:none;stroke-width:50;marker:none;visibility:visible;display:inline;overflow:visible;enable-background:accumulate"
       d="m 1088,-191.63782 c -3,0 -4,1 -4,4 l 0,125 c 0,3 1,4 4,4 l 11.125,0 c 2.4443,0 3.5452,-0.69394 3.875,-2.5625 l 0,-105.4375 33.25,58.5 c 1.326,2.33303 2.75,3.48718 4.75,3.5 2,0.0128 3.424,-1.16697 4.75,-3.5 l 33.25,-58.5 0,104 c 0,3 1,4 4,4 l 11,0 c 3,0 4,-1 4,-4 l 0,-125 c 0,-3 -1,-4 -4,-4 l -17.125,0 c -2.4946,0 -4.1451,1.06903 -5.5,3.5 l -30.375,53.5 -30.4375,-53.59375 c -1.1306,-1.99082 -1.5043,-3.40625 -4.0005,-3.40625 z"
       id="path4595-9"
       sodipodi:nodetypes="sssssccssscsssssscscscs" />
    <path
       id="path24748-9-8"
       d="m 822.75,-191.63782 c -2.54936,0 -3.84374,1.57369 -3.84375,4.03125 l 0,10.9375 c 0,2.45759 1.29438,4.03125 3.84375,4.03125 l 33.25,0 0,110.15625 c 0,2.54936 1.57368,3.84375 4.03125,3.84375 l 10.9375,0 c 2.45757,0 4.03125,-1.29439 4.03125,-3.84375 l 0,-110.15625 32.90625,0 c 2.99998,0 3.99999,-1.00004 4,-4 l 0,-11 c 0,-2.99999 -0.99994,-4 -4,-4 l -85.15625,0 z"
       style="color:#000000;fill:#3c4e5a;fill-opacity:1;fill-rule:nonzero;stroke:none;stroke-width:50;marker:none;visibility:visible;display:inline;overflow:visible;enable-background:accumulate"
       inkscape:connector-curvature="0" />
    <path
       sodipodi:nodetypes="ccccccccc"
       inkscape:connector-curvature="0"
       id="path3668-1"
       d="m 948,-191.63782 c -3,0 -4,1 -4,4 l 0,125.14664 c 0,2.54936 1.57368,3.84375 4.03125,3.84375 l 10.9375,0 c 2.45757,0 4.03125,-1.29439 4.03125,-3.84375 l 0,-125.14664 c 0,-3 -1,-4 -4,-4 -3.66667,0 -7.33333,0 -11,0 z"
       style="color:#000000;fill:#3c4e5a;fill-opacity:1;fill-rule:nonzero;stroke:none;stroke-width:50;marker:none;visibility:visible;display:inline;overflow:visible;enable-background:accumulate" />
    <path
       sodipodi:nodetypes="ccccccccc"
       inkscape:connector-curvature="0"
       id="path4597-9"
       d="m 1225,-153.63782 c -3,0 -4,1 -4,4 l 0,87.14664 c 0,2.54936 1.5737,3.84375 4.0312,3.84375 l 10.9375,0 c 2.4576,0 4.0313,-1.29439 4.0313,-3.84375 l 0,-87.14664 c 0,-3 -1,-4 -4,-4 -3.6667,0 -7.3333,0 -11,0 z"
       style="color:#000000;fill:#3c4e5a;fill-opacity:1;fill-rule:nonzero;stroke:none;stroke-width:50;marker:none;visibility:visible;display:inline;overflow:visible;enable-background:accumulate" />
    <path
       style="color:#000000;fill:#3c4e5a;fill-opacity:1;fill-rule:nonzero;stroke:none;stroke-width:50;marker:none;visibility:visible;display:inline;overflow:visible;enable-background:accumulate"
       d="m 1267,-191.63782 c -3,0 -4,1 -4,4 l 0,125.14664 c 0,2.54936 1.5737,3.84375 4.0312,3.84375 l 10.9375,0 c 2.4576,0 4.0313,-1.29439 4.0313,-3.84375 l 0,-125.14664 c 0,-3 -1,-4 -4,-4 -3.6667,0 -7.3333,0 -11,0 z"
       id="path4599-5"
       inkscape:connector-curvature="0"
       sodipodi:nodetypes="ccccccccc" />
    <path
       sodipodi:nodetypes="ccccccccc"
       inkscape:connector-curvature="0"
       id="path4601-6"
       d="m 1310,-191.63782 c -3,0 -4,1 -4,4 l 0,125.14664 c 0,2.54936 1.5737,3.84375 4.0312,3.84375 l 10.9375,0 c 2.4576,0 4.0313,-1.29439 4.0313,-3.84375 l 0,-125.14664 c 0,-3 -1,-4 -4,-4 -3.6667,0 -7.3333,0 -11,0 z"
       style="color:#000000;fill:#3c4e5a;fill-opacity:1;fill-rule:nonzero;stroke:none;stroke-width:50;marker:none;visibility:visible;display:inline;overflow:visible;enable-background:accumulate" />
    <path
       style="color:#000000;fill:#3c4e5a;fill-opacity:1;fill-rule:nonzero;stroke:none;stroke-width:50;marker:none;visibility:visible;display:inline;overflow:visible;enable-background:accumulate"
       d="m 905,-153.63782 c -3,0 -4,1 -4,4 l 0,87.14664 c 0,2.54936 1.5737,3.84375 4.0312,3.84375 l 10.9375,0 c 2.4576,0 4.0313,-1.29439 4.0313,-3.84375 l 0,-87.14664 c 0,-3 -1,-4 -4,-4 -3.6667,0 -7.3333,0 -11,0 z"
       id="path4605-5"
       inkscape:connector-curvature="0"
       sodipodi:nodetypes="ccccccccc" />
  </g>
  <g
     id="g33033"
     transform="matrix(0.56234528,0,0,0.56234528,-254.68926,158.65885)"
     style="display:inline">
    <path
       style="color:#000000;fill:#3c4e5a;fill-opacity:1;fill-rule:nonzero;stroke:none;stroke-width:1.39130473;marker:none;visibility:visible;display:inline;overflow:visible;enable-background:accumulate"
       d="M 86.1875,4.3125 C 85.59933,4.3636 84.98877,4.58201 84.5,4.96875 L 69.625,16.75 c -1.30334,1.03129 -1.63391,3.00365 -0.5,4.21875 L 101.90625,57.5 c 1.13394,1.21509 2.91542,1.5313 4.21875,0.5 l 10.1875,-8.0625 c 1.30334,-1.03131 1.39058,-2.83584 0.46875,-4.21875 L 88.75,5.4375 c -0.46094,-0.69147 -1.22462,-1.0462 -2,-1.125 -0.19384,-0.0197 -0.36644,-0.017 -0.5625,0 z m 107.875,0 c -0.77538,0.0788 -1.50781,0.43353 -1.96875,1.125 l -28.0625,40.28125 c -0.92183,1.38291 -0.80334,3.18744 0.5,4.21875 L 174.71875,58 c 1.30333,1.0313 3.08481,0.71509 4.21875,-0.5 l 32.78125,-36.53125 c 1.13391,-1.2151 0.80334,-3.18746 -0.5,-4.21875 L 196.3125,4.96875 c -0.65169,-0.51566 -1.47463,-0.73501 -2.25,-0.65625 z M 140.4375,45 c -1.29714,0 -2.62388,0.61384 -4.5625,1.90625 l -34,27 c -2.16971,1.72199 -4.59707,3.10637 -5,6 l -5.15625,37.03125 -22.4375,25 c -1.13391,1.2151 -0.80334,3.18746 0.5,4.21875 l 16.09375,12.78125 -2.4375,17.46875 -10.65625,3.5 c -2.63278,0.86103 -3.87318,1.97325 -4.25,4.5625 l -1.5625,10.875 c -0.37682,2.58926 -0.0513,4.5625 2.71875,4.5625 l 141.46875,0 c 2.77004,0 3.09557,-1.97324 2.71875,-4.5625 l -1.5625,-10.875 c -0.37682,-2.58926 -1.61722,-3.70147 -4.25,-4.5625 l -10.65625,-3.5 -2.40625,-17.25 16.375,-13 c 1.30334,-1.03129 1.63391,-3.00365 0.5,-4.21875 l -22.8125,-25.40625 -5.09375,-36.625 c -0.4003,-2.8747 -2.83029,-4.27801 -5,-6 l -34,-27 C 143.03013,45.61384 141.73464,45 140.4375,45 z m -5.5625,44.90625 11,0 c 2.77,0 3.50449,1.27468 4,4 l 4,22 c 0.49551,2.72532 -0.23,4 -3,4 l -21,0 c -2.77,0 -3.49551,-1.27468 -3,-4 l 4,-22 c 0.49551,-2.72532 1.23,-4 4,-4 z"
       transform="translate(540.15625,-237.63782)"
       id="path33031"
       inkscape:connector-curvature="0" />
  </g>
</svg>
