<?xml version="1.0" encoding="UTF-8" standalone="no"?>
<!-- Created with Inkscape (http://www.inkscape.org/) -->

<svg
   xmlns:dc="http://purl.org/dc/elements/1.1/"
   xmlns:cc="http://creativecommons.org/ns#"
   xmlns:rdf="http://www.w3.org/1999/02/22-rdf-syntax-ns#"
   xmlns:svg="http://www.w3.org/2000/svg"
   xmlns="http://www.w3.org/2000/svg"
   xmlns:sodipodi="http://sodipodi.sourceforge.net/DTD/sodipodi-0.dtd"
   xmlns:inkscape="http://www.inkscape.org/namespaces/inkscape"
   width="65"
   height="20"
   id="svg3035"
   version="1.1"
   inkscape:version="0.48.2 r9819"
   sodipodi:docname="New document 1">
  <defs
     id="defs3037" />
  <sodipodi:namedview
     id="base"
     pagecolor="#ffffff"
     bordercolor="#666666"
     borderopacity="1.0"
     inkscape:pageopacity="0.0"
     inkscape:pageshadow="2"
     inkscape:zoom="5.6568542"
     inkscape:cx="19.477255"
     inkscape:cy="-9.6882454"
     inkscape:document-units="px"
     inkscape:current-layer="layer1"
     showgrid="false"
     fit-margin-top="0"
     fit-margin-left="0"
     fit-margin-right="0"
     fit-margin-bottom="0"
     inkscape:window-width="1675"
     inkscape:window-height="874"
     inkscape:window-x="20"
     inkscape:window-y="20"
     inkscape:window-maximized="0">
    <inkscape:grid
       type="xygrid"
       id="grid3100"
       empspacing="5"
       visible="true"
       enabled="true"
       snapvisiblegridlinesonly="true" />
  </sodipodi:namedview>
  <metadata
     id="metadata3040">
    <rdf:RDF>
      <cc:Work
         rdf:about="">
        <dc:format>image/svg+xml</dc:format>
        <dc:type
           rdf:resource="http://purl.org/dc/dcmitype/StillImage" />
        <dc:title></dc:title>
      </cc:Work>
    </rdf:RDF>
  </metadata>
  <g
     inkscape:label="Layer 1"
     inkscape:groupmode="layer"
     id="layer1"
     transform="translate(-261.8483,-98.50395)">
    <g
       inkscape:export-ydpi="90"
       inkscape:export-xdpi="90"
       inkscape:export-filename="/Users/saman/Desktop/attribution.png"
       id="g5539"
       transform="matrix(0.17441836,0,0,0.17441836,220.52282,29.229342)"
       style="opacity:0.25;fill:#ffffff;stroke:#000000;stroke-width:17.20002365;stroke-linecap:round;stroke-linejoin:round;stroke-miterlimit:4;stroke-opacity:1;stroke-dasharray:none">
      <path
         id="path5541"
         d="m 268,414.375 0,68 10,0 0,-56 20,34 20,-34 0,56 10,0 0,-68 -8,0 c -4,-0.0128 -7.14154,1 -8.90625,4 L 298,440.625 284.90625,418.375 c -1.76471,-3 -4.90625,-4.0128 -8.90625,-4 l -8,0 z"
         style="fill:#ffffff;fill-opacity:1;fill-rule:nonzero;stroke:#000000;stroke-width:17.20002365;stroke-linecap:round;stroke-linejoin:round;stroke-miterlimit:4;stroke-opacity:1;stroke-dasharray:none"
         inkscape:connector-curvature="0" />
      <path
         inkscape:connector-curvature="0"
         style="fill:#ffffff;fill-opacity:1;fill-rule:nonzero;stroke:#000000;stroke-width:17.20002365;stroke-linecap:round;stroke-linejoin:round;stroke-miterlimit:4;stroke-opacity:1;stroke-dasharray:none"
         d="m 443,414.375 0,69 19,0 c 14,0 25,-11.00001 25,-26 0,-15.00001 -11,-26.00001 -25,-26 -3.1659,0.0132 -5.7465,-0.10705 -9,-0.0937 l 0,-16.90625 -10,0 z m 10,27 9,0 c 8.4185,0 15,7.58875 15,16 0,8.41059 -5.8927,16 -15,16 l -9,0 0,-32 z"
         id="path5543" />
      <path
         inkscape:connector-curvature="0"
         id="path5545"
         d="m 360,422.78125 c -18.50477,0 -32.59375,15.77152 -32.59375,34.59375 0,18.82222 14.08898,34.59375 32.59375,34.59375 l 24,0 a 8.6008718,8.6008718 0 0 0 8.59375,-8.59375 l 0,-26 c 0,-18.82222 -14.08898,-34.59375 -32.59375,-34.59375 z m 0,27.1875 c 3.06018,0 5.40625,2.07623 5.40625,7.40625 l 0,7.40625 -5.40625,0 c -2.97418,0 -5.40624,-2.24666 -5.40625,-7.40625 -10e-6,-5.17776 2.42292,-7.40625 5.40625,-7.40625 z"
         style="font-size:medium;font-style:normal;font-variant:normal;font-weight:normal;font-stretch:normal;text-indent:0;text-align:start;text-decoration:none;line-height:normal;letter-spacing:normal;word-spacing:normal;text-transform:none;direction:ltr;block-progression:tb;writing-mode:lr-tb;text-anchor:start;baseline-shift:baseline;color:#000000;fill:#000000;fill-opacity:1;fill-rule:nonzero;stroke:none;stroke-width:17.20002365;marker:none;visibility:visible;display:inline;overflow:visible;enable-background:accumulate;font-family:Sans;-inkscape-font-specification:Sans" />
      <path
         inkscape:connector-curvature="0"
         style="fill:#ffffff;fill-opacity:1;fill-rule:nonzero;stroke:#000000;stroke-width:17.20002365;stroke-linecap:round;stroke-linejoin:round;stroke-miterlimit:4;stroke-opacity:1;stroke-dasharray:none"
         d="m 392,431.375 0,69 10,0 0,-16.9375 c 3.25348,0.0132 5.83409,-0.0757 9,-0.0625 14,0 25,-11 25,-26 0,-15 -11,-26 -25,-26 l -19,0 z m 10,10 9,0 c 9.1072,0 15,7.58941 15,16 0,8.41125 -6.5815,16 -15,16 l -9,0 0,-32 z"
         id="path5547" />
      <path
         inkscape:connector-curvature="0"
         style="fill:#ffffff;fill-opacity:1;fill-rule:nonzero;stroke:#000000;stroke-width:17.20002365;stroke-linecap:round;stroke-linejoin:round;stroke-miterlimit:4;stroke-opacity:1;stroke-dasharray:none"
         d="m 518,431.375 c -13.8071,0 -25,11.64062 -25,26 0,14.35938 11.1929,26 25,26 13.8071,0 25,-11.64062 25,-26 0,-14.35938 -11.1929,-26 -25,-26 z m 0,10 c 8.2843,0 15,7.16348 15,16 0,8.83652 -6.7157,16 -15,16 -8.2843,0 -15,-7.16348 -15,-16 0,-8.83652 6.7157,-16 15,-16 z"
         id="path5549" />
      <path
         inkscape:connector-curvature="0"
         style="fill:#ffffff;fill-opacity:1;fill-rule:nonzero;stroke:#000000;stroke-width:17.20002365;stroke-linecap:round;stroke-linejoin:round;stroke-miterlimit:4;stroke-opacity:1;stroke-dasharray:none"
         d="m 541.9375,432.36218 17.40625,24.25 -18.34375,25.75 12.25,0 12.21875,-17.1875 12.28125,17.1875 12.25,0 -18.375,-25.75 17.375,-24.25 -12.3125,0 -11.21875,15.65625 L 554.25,432.3622 z"
         id="path5551" />
    </g>
    <g
       inkscape:export-ydpi="90"
       inkscape:export-xdpi="90"
       inkscape:export-filename="/Users/saman/Desktop/attribution.png"
       style="fill:#ffffff"
       transform="matrix(0.17441836,0,0,0.17441836,220.52282,29.229342)"
       id="g5553">
      <path
         sodipodi:nodetypes="ccccccccccccccc"
         inkscape:connector-curvature="0"
         style="fill:#ffffff;fill-opacity:1;fill-rule:nonzero;stroke:none"
         d="m 268,414.375 0,68.79999 10,0 0,-56.79999 20,34 20,-34 0,56.79999 10,0 0,-68.79999 -8,0 c -4,-0.0128 -7.14154,1 -8.90625,4 L 298,440.625 284.90625,418.375 c -1.76471,-3 -4.90625,-4.0128 -8.90625,-4 z"
         id="path5555" />
      <path
         sodipodi:nodetypes="ccsscccccssscc"
         id="path5557"
         d="m 443.33335,414.375 0,69 18.66665,0 c 14,0 25,-11.00001 25,-26 0,-15.00001 -11,-25.70639 -25,-25.70638 -3.1659,0.0132 -5.41315,-0.10705 -8.66665,-0.0937 l 0,-17.19987 z m 10,27.29362 8.66665,0 c 8.4185,0 15,7.29513 15,15.70638 0,8.41059 -5.8927,16 -15,16 l -8.66665,0 z"
         style="fill:#ffffff;fill-opacity:1;fill-rule:nonzero;stroke:none"
         inkscape:connector-curvature="0" />
      <path
         id="path5559"
         d="m 360,431.375 c -14,0 -24,11 -24,26 0,15 9.99999,26 24,26 l 24,0 0,-26 c 0,-15 -9.99999,-26 -24,-26 z m 0,10 c 8,0 14,6.89276 14,16 l 0,16 -14,0 c -8.00001,0 -13.99998,-7.01278 -14,-16 -10e-6,-9 6,-16 14,-16 z"
         style="fill:#ffffff;fill-opacity:1;fill-rule:nonzero;stroke:none"
         inkscape:connector-curvature="0" />
      <path
         sodipodi:nodetypes="cccccssccssscc"
         id="path5561"
         d="m 392,431.57492 0,68.80008 10,0 0,-16.9375 c 3.25348,0.0132 5.83409,-0.0757 9,-0.0625 14,0 25,-11 25,-26 0,-15 -11,-25.80008 -25,-25.80008 z m 10,10 9,0 c 9.1072,0 15,7.38949 15,15.80008 0,8.41125 -6.5815,16 -15,16 l -9,0 z"
         style="fill:#ffffff;fill-opacity:1;fill-rule:nonzero;stroke:none"
         inkscape:connector-curvature="0" />
      <path
         id="path5563"
         d="m 518,431.375 c -13.8071,0 -25,11.64062 -25,26 0,14.35938 11.1929,26 25,26 13.8071,0 25,-11.64062 25,-26 0,-14.35938 -11.1929,-26 -25,-26 z m 0,10 c 8.2843,0 15,7.16348 15,16 0,8.83652 -6.7157,16 -15,16 -8.2843,0 -15,-7.16348 -15,-16 0,-8.83652 6.7157,-16 15,-16 z"
         style="fill:#ffffff;fill-opacity:1;fill-rule:nonzero;stroke:none"
         inkscape:connector-curvature="0" />
      <path
         id="path5565"
         d="M 541.9375,431.57492 559.34375,456.58856 541,483.14944 l 12.25,0 12.21875,-17.72874 12.28125,17.72874 12.25,0 -18.375,-26.56088 17.375,-25.01364 -12.3125,0 -11.21875,16.14927 L 554.25,431.57494 z"
         style="fill:#ffffff;fill-opacity:1;fill-rule:nonzero;stroke:none"
         inkscape:connector-curvature="0" />
    </g>
  </g>
</svg>
