<?xml version="1.0" encoding="UTF-8" standalone="no"?>
<!-- Created with Inkscape (http://www.inkscape.org/) -->

<svg
   xmlns:dc="http://purl.org/dc/elements/1.1/"
   xmlns:cc="http://creativecommons.org/ns#"
   xmlns:rdf="http://www.w3.org/1999/02/22-rdf-syntax-ns#"
   xmlns:svg="http://www.w3.org/2000/svg"
   xmlns="http://www.w3.org/2000/svg"
   xmlns:sodipodi="http://sodipodi.sourceforge.net/DTD/sodipodi-0.dtd"
   xmlns:inkscape="http://www.inkscape.org/namespaces/inkscape"
   width="512"
   height="512"
   id="svg11140"
   version="1.1"
   inkscape:version="0.48.2 r9819"
   sodipodi:docname="mapbox-horizontal.svg"
   inkscape:export-filename="/Users/saman/work_repos/mapbox-press-assets/logos/mapbox-logo/mapbox-logo-512.png"
   inkscape:export-xdpi="90"
   inkscape:export-ydpi="90">
  <defs
     id="defs11142" />
  <sodipodi:namedview
     id="base"
     pagecolor="#ffffff"
     bordercolor="#666666"
     borderopacity="1.0"
     inkscape:pageopacity="0.0"
     inkscape:pageshadow="2"
     inkscape:zoom="1"
     inkscape:cx="229.89571"
     inkscape:cy="223.95677"
     inkscape:document-units="px"
     inkscape:current-layer="layer1"
     showgrid="false"
     inkscape:window-width="1393"
     inkscape:window-height="945"
     inkscape:window-x="150"
     inkscape:window-y="20"
     inkscape:window-maximized="0"
     fit-margin-top="0"
     fit-margin-left="0"
     fit-margin-right="0"
     fit-margin-bottom="0">
    <inkscape:grid
       type="xygrid"
       id="grid11208"
       empspacing="5"
       visible="true"
       enabled="true"
       snapvisiblegridlinesonly="true" />
  </sodipodi:namedview>
  <metadata
     id="metadata11145">
    <rdf:RDF>
      <cc:Work
         rdf:about="">
        <dc:format>image/svg+xml</dc:format>
        <dc:type
           rdf:resource="http://purl.org/dc/dcmitype/StillImage" />
        <dc:title></dc:title>
      </cc:Work>
    </rdf:RDF>
  </metadata>
  <g
     inkscape:label="Layer 1"
     inkscape:groupmode="layer"
     id="layer1"
     transform="translate(-64,-220.36218)">
    <path
       inkscape:connector-curvature="0"
       style="color:#000000;fill:#3bb2d0;fill-opacity:1;stroke:none;stroke-width:2;marker:none;visibility:visible;display:inline;overflow:visible;enable-background:accumulate"
       d="m 90,409.36218 c -6.62742,0 -12,5.37258 -12,12 0,6.62742 5.37258,12 12,12 6.62742,0 12,-5.37258 12,-12 0,-6.62742 -5.37258,-12 -12,-12 z m 60,8.0625 c -34.22046,0 -62,27.7619 -62,62 0,34.2381 27.77954,61.9375 62,61.9375 34.22046,0 62,-27.6994 62,-61.9375 0,-34.2381 -27.77954,-62 -62,-62 z m 23.3125,28.75 c 11.90276,0 28.75,8.88812 28.75,36 0,19.19802 -15.85744,39.375 -39.375,39.375 -26.50692,0 -39.9375,-21.8125 -39.9375,-21.8125 0,0 14.8542,-53.56252 50.5625,-53.5625 z m 240.6875,1.25 0,70 19,0 c 14,0 25,-11.00002 25,-26 0,-15.00002 -11,-26.00002 -25,-26 -3.1659,0.014 -5.7465,-0.1384 -9,-0.125 l 0,-17.875 -10,0 z m -174,2 0,68 10,0 0,-56 20,34 20,-34 0,56 10,0 0,-68 -8,0 c -4,-0.012 -7.17278,1 -8.9375,4 l -13.0625,22.25 -13.125,-22.25 c -1.7647,-3 -4.875,-4.0128 -8.875,-4 l -8,0 z m 92,16 c -14,0 -24,11 -24,26 0,15 10,26 24,26 l 24,0 0,-26 c 0,-15 -10,-26 -24,-26 z m 32,0 0,70 10,0 0,-17.9375 c 3.25348,0.014 5.83408,-0.0758 9,-0.0624 14,0 25,-11 25,-26 0,-15 -11,-26 -25,-26 l -19,0 z m 125,0 c -13.8071,0 -25,11.64062 -25,26 0,14.35938 11.1929,26 25,26 13.8071,0 25,-11.64062 25,-26 0,-14.35938 -11.1929,-26 -25,-26 z m 23.9375,2 17.375,24.25 -18.3125,25.75 12.25,0 12.1875,-17.1875 12.3125,17.1875 12.25,0 -18.375,-25.75 17.375,-24.25 -12.3125,0 -11.25,15.625 -11.1875,-15.625 -12.3125,0 z m -326.5,3.5625 c -0.1994,0.008 -0.42508,0.0266 -0.625,0.0624 -3.1989,0.5745 -5.18956,4.53084 -4.4375,8.875 0.75206,4.34416 3.9886,7.38702 7.1875,6.8125 3.1989,-0.57448 5.18956,-4.53084 4.4375,-8.875 -0.70506,-4.07262 -3.57206,-6.99672 -6.5625,-6.875 z M 332,475.42468 c 8,0 14,6.89276 14,16 l 0,16 -14,0 c -8,0 -13.99998,-7.01278 -14,-16 0,-9 6,-16 14,-16 z m 42,0 9,0 c 9.1072,0 15,7.5894 15,16 0,8.41124 -6.5815,16 -15,16 l -9,0 0,-32 z m 50,0 9,0 c 8.4185,0 15,7.58876 15,16 0,8.41058 -5.8927,16 -15,16 l -9,0 0,-32 z m 65,0 c 8.2843,0 15,7.16348 15,16 0,8.83652 -6.7157,16 -15,16 -8.2843,0 -15,-7.16348 -15,-16 0,-8.83652 6.7157,-16 15,-16 z m -331.4375,1.5 c -0.23258,0.01 -0.45424,0.0244 -0.6875,0.0624 -3.73206,0.61042 -6.06492,4.82184 -5.1875,9.4375 0.8774,4.61568 4.58044,7.8604 8.3125,7.25 3.73204,-0.6104 6.0649,-4.82184 5.1875,-9.4375 -0.82258,-4.3272 -4.13614,-7.44182 -7.625,-7.3125 z"
       id="path4526" />
  </g>
</svg>
