<?xml version="1.0" encoding="UTF-8" standalone="no"?>
<!-- Created with Inkscape (http://www.inkscape.org/) -->

<svg
   xmlns:dc="http://purl.org/dc/elements/1.1/"
   xmlns:cc="http://creativecommons.org/ns#"
   xmlns:rdf="http://www.w3.org/1999/02/22-rdf-syntax-ns#"
   xmlns:svg="http://www.w3.org/2000/svg"
   xmlns="http://www.w3.org/2000/svg"
   xmlns:sodipodi="http://sodipodi.sourceforge.net/DTD/sodipodi-0.dtd"
   xmlns:inkscape="http://www.inkscape.org/namespaces/inkscape"
   width="512"
   height="512"
   id="svg11140"
   version="1.1"
   inkscape:version="0.48.2 r9819"
   sodipodi:docname="mapbox-vertical.svg"
   inkscape:export-filename="/Users/saman/work_repos/mapbox-press-assets/logos/mapbox-logo/mapbox-vertical.png"
   inkscape:export-xdpi="90"
   inkscape:export-ydpi="90">
  <defs
     id="defs11142" />
  <sodipodi:namedview
     id="base"
     pagecolor="#ffffff"
     bordercolor="#666666"
     borderopacity="1.0"
     inkscape:pageopacity="0.0"
     inkscape:pageshadow="2"
     inkscape:zoom="1"
     inkscape:cx="225.80373"
     inkscape:cy="177.48163"
     inkscape:document-units="px"
     inkscape:current-layer="layer1"
     showgrid="false"
     inkscape:window-width="1393"
     inkscape:window-height="945"
     inkscape:window-x="150"
     inkscape:window-y="20"
     inkscape:window-maximized="0"
     fit-margin-top="0"
     fit-margin-left="0"
     fit-margin-right="0"
     fit-margin-bottom="0">
    <inkscape:grid
       type="xygrid"
       id="grid11208"
       empspacing="5"
       visible="true"
       enabled="true"
       snapvisiblegridlinesonly="true" />
  </sodipodi:namedview>
  <metadata
     id="metadata11145">
    <rdf:RDF>
      <cc:Work
         rdf:about="">
        <dc:format>image/svg+xml</dc:format>
        <dc:type
           rdf:resource="http://purl.org/dc/dcmitype/StillImage" />
        <dc:title></dc:title>
      </cc:Work>
    </rdf:RDF>
  </metadata>
  <g
     inkscape:label="Layer 1"
     inkscape:groupmode="layer"
     id="layer1"
     transform="translate(-64,-220.36218)">
    <rect
       style="color:#000000;fill:none;stroke:none;stroke-width:1;marker:none;visibility:visible;display:inline;overflow:visible;enable-background:accumulate"
       id="rect11175"
       width="400"
       height="260"
       x="120"
       y="472.36218" />
    <path
       inkscape:connector-curvature="0"
       style="color:#000000;fill:#3bb2d0;fill-opacity:1;stroke:none;stroke-width:2;marker:none;visibility:visible;display:inline;overflow:visible;enable-background:accumulate"
       d="m 333,517.42468 0,70 19,0 c 14,0 25,-11.00002 25,-26 0,-15.00002 -11,-26.00002 -25,-26 -3.1659,0.014 -5.7465,-0.1384 -9,-0.125 l 0,-17.875 z m -174,2 0,68 10,0 0,-56 20,34 20,-34 0,56 10,0 0,-68 -8,0 c -4,-0.012 -7.17278,1 -8.9375,4 l -13.0625,22.25 -13.125,-22.25 c -1.7647,-3 -4.875,-4.0128 -8.875,-4 z m 92,16 c -14,0 -24,11 -24,26 0,15 10,26 24,26 l 24,0 0,-26 c 0,-15 -10,-26 -24,-26 z m 32,0 0,70 10,0 0,-17.9375 c 3.25348,0.014 5.83408,-0.0758 9,-0.0624 14,0 25,-11 25,-26 0,-15 -11,-26 -25,-26 l -19,0 z m 125,0 c -13.8071,0 -25,11.64062 -25,26 0,14.35938 11.1929,26 25,26 13.8071,0 25,-11.64062 25,-26 0,-14.35938 -11.1929,-26 -25,-26 z m 23.9375,2 17.375,24.25 -18.3125,25.75 12.25,0 12.1875,-17.1875 12.3125,17.1875 12.25,0 -18.375,-25.75 17.375,-24.25 -12.3125,0 -11.25,15.625 -11.1875,-15.625 z m -180.9375,8 c 8,0 14,6.89276 14,16 l 0,16 -14,0 c -8,0 -13.99998,-7.01278 -14,-16 0,-9 6,-16 14,-16 z m 42,0 9,0 c 9.1072,0 15,7.5894 15,16 0,8.41124 -6.5815,16 -15,16 l -9,0 z m 50,0 9,0 c 8.4185,0 15,7.58876 15,16 0,8.41058 -5.8927,16 -15,16 l -9,0 z m 65,0 c 8.2843,0 15,7.16348 15,16 0,8.83652 -6.7157,16 -15,16 -8.2843,0 -15,-7.16348 -15,-16 0,-8.83652 6.7157,-16 15,-16 z"
       id="path4526"
       sodipodi:nodetypes="ccsscccccccccccccccccccssscsscccccssccssssscccccccccccccsscssscssscccsssccsssss" />
    <path
       inkscape:connector-curvature="0"
       style="color:#000000;fill:#3bb2d0;fill-opacity:1;stroke:none;stroke-width:2;marker:none;visibility:visible;display:inline;overflow:visible;enable-background:accumulate"
       d="m 251.66666,327.36218 c -8.23407,0 -14.90909,6.67502 -14.90909,14.90909 0,8.23407 6.67502,14.90909 14.90909,14.90909 8.23407,0 14.90909,-6.67502 14.90909,-14.90909 0,-8.23407 -6.67502,-14.90909 -14.90909,-14.90909 z m 74.54546,10.01705 c -42.51633,0 -77.03031,34.49205 -77.03031,77.0303 0,42.53824 34.51398,76.95265 77.03031,76.95265 42.51632,0 77.0303,-34.41441 77.0303,-76.95265 0,-42.53825 -34.51398,-77.0303 -77.0303,-77.0303 z m 28.96401,35.71969 c 14.78828,0 35.7197,11.04282 35.7197,44.72728 0,23.85208 -19.70167,48.92045 -48.92046,48.92045 -32.93284,0 -49.61932,-27.10038 -49.61932,-27.10038 0,0 18.45522,-66.54737 62.82008,-66.54735 z m 16.30682,30.82765 c -0.24774,0.01 -0.52813,0.033 -0.77652,0.0775 -3.97439,0.71377 -6.44763,5.62923 -5.51325,11.02652 0.93437,5.39729 4.95553,9.17781 8.92992,8.46401 3.97439,-0.71375 6.44764,-5.62922 5.51326,-11.02651 -0.87599,-5.05993 -4.43802,-8.6929 -8.15341,-8.54167 z m -35.875,7.3769 c -0.28896,0.0124 -0.56436,0.0303 -0.85417,0.0775 -4.6368,0.7584 -7.5352,5.99077 -6.44507,11.72537 1.0901,5.73464 5.69085,9.76596 10.32765,9.00758 4.63677,-0.75838 7.53518,-5.99077 6.44507,-11.72538 -1.02199,-5.37622 -5.13884,-9.2459 -9.47348,-9.08523 z"
       id="path4526-6"
       sodipodi:nodetypes="ssssssssssssscsccscsccccssscc" />
  </g>
</svg>
